<?xml version="1.0" encoding="UTF-8" standalone="no"?>
<!-- Created with Inkscape (http://www.inkscape.org/) -->

<svg
   xmlns:dc="http://purl.org/dc/elements/1.1/"
   xmlns:cc="http://creativecommons.org/ns#"
   xmlns:rdf="http://www.w3.org/1999/02/22-rdf-syntax-ns#"
   xmlns:svg="http://www.w3.org/2000/svg"
   xmlns="http://www.w3.org/2000/svg"
   version="1.1"
   width="170"
   height="90"
   id="svg4501">
  <defs
     id="defs4503" />
  <metadata
     id="metadata4506">
    <rdf:RDF>
      <cc:Work
         rdf:about="">
        <dc:format>image/svg+xml</dc:format>
        <dc:type
           rdf:resource="http://purl.org/dc/dcmitype/StillImage" />
        <dc:title></dc:title>
      </cc:Work>
    </rdf:RDF>
  </metadata>
  <g
     transform="translate(0,-962.3622)"
     id="layer1">
    <rect
       width="172.1304"
       height="92.354492"
       x="-0.85090733"
       y="961.22058"
       id="rect3329-8-0"
       style="fill:#0d7340;fill-opacity:1;fill-rule:nonzero;stroke-width:1.43099999;stroke-miterlimit:4;stroke-dasharray:none" />
    <path
       d="m 24.547199,1022.644 14.050543,-14.9845 m -12.713769,-0.011 12.331338,0.1294 -10.331425,-13.34943 9.041822,0.0415 m -12.538315,28.20143 15.646085,0 m -16.852883,8.3127 c 6.009924,-52.64407 6.024885,-50.83292 6.024885,-50.83292 l 6.009923,0 6.009924,50.64402 78.774673,0.067"
       id="path3013-4-07"
       style="fill:none;stroke:#ffffff;stroke-width:3.58299994;stroke-linecap:round;stroke-linejoin:round;stroke-miterlimit:4;stroke-opacity:1;stroke-dasharray:none" />
    <g
       id="text3015-3-2"
       style="font-size:40px;font-style:normal;font-weight:normal;line-height:125%;letter-spacing:0px;word-spacing:0px;fill:#ffffff;fill-opacity:1;stroke:none;font-family:Sans">
      <path
         d="m 54.775089,1024.3893 0,-28.43752 9.277344,0 c 2.968734,3e-5 5.292951,0.64456 6.972656,1.9336 1.679666,1.27606 2.519509,3.19662 2.519532,5.76172 -2.3e-5,1.263 -0.403668,2.3958 -1.210938,3.3984 -0.807312,0.9896 -1.868509,1.7253 -3.183594,2.2071 1.718731,0.3646 3.066386,1.2044 4.042969,2.5195 0.98956,1.3151 1.484352,2.8451 1.484375,4.5898 -2.3e-5,2.6042 -0.846377,4.5964 -2.539062,5.9766 -1.679707,1.3672 -3.964861,2.0508 -6.855469,2.0508 l -10.507813,0 m 3.847657,-13.3399 0,10.3321 6.660156,0 c 1.744776,0 3.105451,-0.4297 4.082031,-1.2891 0.976543,-0.8724 1.464824,-2.1029 1.464844,-3.6914 -2e-5,-1.6667 -0.410176,-2.9752 -1.230469,-3.9258 -0.807309,-0.9505 -2.057308,-1.4257 -3.75,-1.4258 l -7.226562,0 m 0,-3.0078 6.230468,0 c 1.432277,0 2.59764,-0.3906 3.496094,-1.1718 0.89842,-0.7943 1.347638,-1.8946 1.347656,-3.3008 -1.8e-5,-1.5365 -0.488299,-2.6823 -1.464843,-3.4375 -0.963558,-0.76823 -2.356786,-1.15235 -4.179688,-1.15237 l -5.429687,0 0,9.06247"
         id="path3769"
         style="fill:#ffffff;font-family:Roboto;-inkscape-font-specification:Roboto" />
      <path
         d="m 83.759464,1024.3893 -3.847656,0 0,-21.1328 3.847656,0 0,21.1328 m 0,-26.54299 -3.847656,0 0,-3.92578 3.847656,0 0,3.92578"
         id="path3771"
         style="fill:#ffffff;font-family:Roboto;-inkscape-font-specification:Roboto" />
      <path
         d="m 94.755558,998.15881 0,5.09769 4.003906,0 0,2.8515 -4.003906,0 0,12.8321 c -8e-6,0.9896 0.201815,1.6862 0.605469,2.0898 0.416658,0.4037 0.963532,0.6055 1.640625,0.6055 0.221344,0 0.462229,-0.026 0.722656,-0.078 0.273426,-0.052 0.514312,-0.1172 0.722656,-0.1954 l 0.507813,2.6368 c -0.28647,0.2343 -0.709647,0.4231 -1.269531,0.5664 -0.546886,0.1562 -1.100271,0.2343 -1.660157,0.2343 -1.562507,0 -2.805996,-0.4687 -3.730468,-1.4062 -0.924484,-0.9505 -1.386723,-2.4349 -1.386719,-4.4531 l 0,-12.8321 -3.359375,0 0,-2.8515 3.359375,0 0,-5.09769 3.847656,0"
         id="path3773"
         style="fill:#ffffff;font-family:Roboto;-inkscape-font-specification:Roboto" />
      <path
         d="m 113.50556,1006.6549 -1.97266,-0.1172 c -1.01563,0 -1.87501,0.2409 -2.57812,0.7227 -0.69011,0.4818 -1.22397,1.1588 -1.60157,2.0312 l 0,15.0977 -3.84765,0 0,-21.1328 3.4375,0 0.37109,3.0859 c 0.59895,-1.0937 1.33463,-1.9466 2.20703,-2.5586 0.88541,-0.6119 1.90103,-0.9179 3.04688,-0.918 0.28644,10e-5 0.55988,0.026 0.82031,0.078 0.2604,0.039 0.47525,0.085 0.64453,0.1367 l -0.52734,3.5742"
         id="path3775"
         style="fill:#ffffff;font-family:Roboto;-inkscape-font-specification:Roboto" />
      <path
         d="m 121.41571,1024.3893 -3.84765,0 0,-21.1328 3.84765,0 0,21.1328 m 0,-26.54299 -3.84765,0 0,-3.92578 3.84765,0 0,3.92578"
         id="path3777"
         style="fill:#ffffff;font-family:Roboto;-inkscape-font-specification:Roboto" />
      <path
         d="m 126.49384,1014.2135 c 0,-3.3984 0.74218,-6.1393 2.22656,-8.2227 1.48437,-2.0833 3.53515,-3.1249 6.15235,-3.125 1.34113,10e-5 2.51951,0.2735 3.53515,0.8204 1.01561,0.5338 1.86197,1.3086 2.53906,2.3242 l 0.46875,-2.7539 3.06641,0 0,21.25 c -2e-5,2.7083 -0.78778,4.7851 -2.36328,6.2304 -1.57554,1.4584 -3.84767,2.1875 -6.81641,2.1875 -1.01563,0 -2.11589,-0.1432 -3.30078,-0.4296 -1.17188,-0.2735 -2.20703,-0.6511 -3.10547,-1.1329 l 0.97657,-2.9882 c 0.69009,0.3906 1.52343,0.7031 2.5,0.9375 0.97655,0.2473 1.94009,0.371 2.89062,0.3711 1.87499,-10e-5 3.23566,-0.4297 4.08203,-1.2891 0.85936,-0.8464 1.28905,-2.1419 1.28906,-3.8867 l 0,-2.3828 c -0.69012,0.8854 -1.51694,1.5559 -2.48046,2.0117 -0.96356,0.4427 -2.07033,0.664 -3.32032,0.664 -2.59115,0 -4.62891,-0.9375 -6.11328,-2.8125 -1.48438,-1.875 -2.22656,-4.3294 -2.22656,-7.3632 l 0,-0.4102 m 3.84766,0.4102 c -1e-5,2.1224 0.44921,3.8281 1.34765,5.1171 0.89843,1.2891 2.26562,1.9336 4.10156,1.9336 1.15885,0 2.1289,-0.2604 2.91016,-0.7812 0.78124,-0.5339 1.42577,-1.2826 1.93359,-2.2461 l 0,-9.7266 c -0.4948,-0.8984 -1.13933,-1.608 -1.93359,-2.1289 -0.79428,-0.5338 -1.75131,-0.8007 -2.87109,-0.8008 -1.83595,10e-5 -3.20965,0.7683 -4.1211,2.3047 -0.91146,1.5365 -1.36719,3.5092 -1.36718,5.918 l 0,0.4102"
         id="path3779"
         style="fill:#ffffff;font-family:Roboto;-inkscape-font-specification:Roboto" />
    </g>
  </g>
</svg>
